<?xml version="1.0" encoding="utf-8"?>
<!-- Generator: Adobe Illustrator 26.0.2, SVG Export Plug-In . SVG Version: 6.00 Build 0)  -->
<svg version="1.1" id="Layer_1" xmlns="http://www.w3.org/2000/svg" xmlns:xlink="http://www.w3.org/1999/xlink" x="0px" y="0px"
	 viewBox="0 0 122.9 95.5" style="enable-background:new 0 0 122.9 95.5;" xml:space="preserve">
<style type="text/css">
	.st0{fill:#A7A7A7;}
</style>
<path class="st0" d="M5.7,12.2h55.5c-1,2.2-1.8,4.4-2.3,6.7H6.7v69.8h98.7V63.7c2.3-0.7,4.6-1.5,6.7-2.6v28.9c0,1.5-0.6,2.9-1.7,4
	c-0.1,0.1-0.2,0.2-0.3,0.3c-1,0.9-2.4,1.4-3.7,1.4H5.6c-1.5,0-2.9-0.6-4-1.7c-1.1-1.1-1.6-2.5-1.6-4v-72C0,14.8,2.5,12.2,5.7,12.2
	C5.6,12.2,5.6,12.2,5.7,12.2L5.7,12.2z M95.2,0c15.3,0,27.7,12.4,27.7,27.7s-12.4,27.7-27.7,27.7c-15.3,0-27.7-12.4-27.7-27.7
	c0,0,0,0,0,0C67.5,12.4,79.9,0,95.2,0z M91.2,41h8.1c1.6,0,2.9-1.3,2.9-2.9v-9.2h5.1c0.8,0,1.6-0.3,2.1-1c1.1-1.6-0.4-3.2-1.4-4.3
	C105,20.4,98.5,14.7,97,13c-0.8-1-2.3-1.2-3.3-0.4c-0.1,0.1-0.3,0.3-0.4,0.4c-1.4,1.7-8.3,7.8-11.1,10.9c-1,1.1-2.1,2.5-1.1,4
	c0.5,0.6,1.2,1,2,1h5.2v9.2C88.2,39.8,89.6,41,91.2,41L91.2,41z M29,31.8c4.5,0,8.1,3.6,8.1,8.1S33.5,48,29,48s-8.1-3.6-8.1-8.1
	c0,0,0,0,0,0C20.9,35.4,24.5,31.8,29,31.8L29,31.8z M63,66.5L69.7,55c5.4,5.1,12.3,8.4,19.7,9.6l7.1,18.2H16.2v-6.2l6.7-0.3
	l6.7-16.5L33,71.6h10.1L51.9,49L63,66.5z"/>
</svg>
